<svg xmlns="http://www.w3.org/2000/svg" width="402" height="235" fill="none"><path fill="#c4c4c4" d="M.808 221.754h141v12h-141zM.808 199.754h141v12h-141zM.808 177.754h141v12h-141zM.808 155.754h141v12h-141zM.808 133.754h141v12h-141zM.808 111.754h141v12h-141zM.808 89.754h141v12h-141zM.808 67.754h141v12h-141zM.808 45.754h141v12h-141zM.808 23.754h141v12h-141z"/><path fill="#c4c4c4" d="M.808 221.754h141v12h-141zM.808 199.754h141v12h-141zM.808 177.754h141v12h-141zM.808 155.754h141v12h-141zM.808 133.754h141v12h-141zM.808 111.754h141v12h-141zM.808 89.754h141v12h-141zM.808 67.754h141v12h-141zM.808 45.754h141v12h-141zM.808 23.754h141v12h-141z"/><path d="M148.308 24.754c38.324 0 75.078 22.072 102.177 61.36 27.099 39.29 42.323 92.577 42.323 148.14h-144.5z" fill="#a55050"/><path fill="#c4c4c4" d="M235.808 145.754h19v89h-19zM294.808 145.754h19v89h-19zM401.808 215.754v19h-88v-19zM235.808 215.754v19h-88v-19zM311.175 113.872c.996-3.274 1.506-6.662 1.501-9.968-.005-3.307-.524-6.468-1.529-9.302-1.004-2.835-2.473-5.288-4.324-7.22-1.851-1.931-4.046-3.303-6.462-4.037-2.415-.735-5.003-.817-7.616-.242-2.612.575-5.199 1.795-7.61 3.592-2.412 1.796-4.603 4.133-6.447 6.878-1.844 2.744-3.305 5.842-4.3 9.117l18.393 5.59zM295.53 81.847a23.94 23.94 0 0 0-1.357-8.285c-.933-2.634-2.318-5.033-4.078-7.062-1.759-2.029-3.858-3.647-6.177-4.763A17.404 17.404 0 0 0 276.583 60a17.403 17.403 0 0 0-7.377 1.55c-2.347 1.056-4.486 2.62-6.297 4.604-1.81 1.983-3.257 4.346-4.256 6.955a23.93 23.93 0 0 0-1.569 8.248l19.223.246z"/><path d="M313.808 146.254a39.939 39.939 0 0 0-2.969-15.116 39.536 39.536 0 0 0-8.454-12.815 38.967 38.967 0 0 0-12.652-8.562 38.574 38.574 0 0 0-14.925-3.007 38.574 38.574 0 0 0-14.925 3.007 38.967 38.967 0 0 0-12.652 8.562 39.536 39.536 0 0 0-8.454 12.815 39.939 39.939 0 0 0-2.969 15.116h39z" fill="#c4c4c4"/><path d="M302.808 138.754c0-3.02-.711-6.011-2.093-8.802-1.382-2.79-3.408-5.326-5.962-7.461-2.553-2.136-5.585-3.83-8.921-4.986a32.23 32.23 0 0 0-10.524-1.751 32.23 32.23 0 0 0-10.524 1.75c-3.336 1.157-6.368 2.85-8.921 4.987-2.554 2.135-4.58 4.67-5.962 7.46-1.382 2.792-2.093 5.783-2.093 8.803h27.5z" fill="#322c2c"/><path d="M275.152 102.97a30.769 30.769 0 0 0-3.182-8.996c-1.503-2.76-3.397-5.167-5.574-7.086-2.178-1.919-4.597-3.31-7.118-4.096s-5.096-.95-7.577-.483c-2.481.467-4.82 1.556-6.883 3.204-2.063 1.649-3.81 3.825-5.141 6.404-1.332 2.578-2.221 5.51-2.617 8.627a30.745 30.745 0 0 0 .306 9.539l18.893-3.556zM275.808.754l5.196 57.75h-10.392z" fill="#c4c4c4"/></svg>