<svg xmlns="http://www.w3.org/2000/svg" width="1200" height="335" fill="none"><path fill="#c4c4c4" d="M989.649 4.8h12v330h-12zM1011.649 4.8h12v330h-12zM1033.649 4.8h12v330h-12zM1055.649 4.8h12v330h-12zM1077.649 4.8h12v330h-12zM1099.649 4.8h12v330h-12zM1121.649 4.8h12v330h-12zM1143.649 4.8h12v330h-12zM1165.649 4.8h12v330h-12zM1187.649 4.8h12v330h-12zM-.351 288.8h141v12h-141zM-.351 266.8h141v12h-141zM-.351 244.8h141v12h-141zM-.351 222.8h141v12h-141zM-.351 200.8h141v12h-141zM-.351 178.8h141v12h-141zM-.351 156.8h141v12h-141zM-.351 134.8h141v12h-141zM-.351 112.8h141v12h-141zM-.351 90.8h141v12h-141z"/><path fill="#c4c4c4" d="M-.351 288.8h141v12h-141zM-.351 266.8h141v12h-141zM-.351 244.8h141v12h-141zM-.351 222.8h141v12h-141zM-.351 200.8h141v12h-141zM-.351 178.8h141v12h-141zM-.351 156.8h141v12h-141zM-.351 134.8h141v12h-141zM-.351 112.8h141v12h-141zM-.351 90.8h141v12h-141z"/><path d="M147.149 91.8c38.324 0 75.078 22.072 102.177 61.36 27.099 39.29 42.323 92.577 42.323 148.14h-144.5z" fill="#a55050"/><path fill="#c4c4c4" d="M234.649 212.8h19v89h-19zM293.649 212.8h19v89h-19zM400.649 282.8v19h-88v-19zM234.649 282.8v19h-88v-19zM310.016 180.918c.996-3.274 1.506-6.662 1.5-9.968-.004-3.306-.523-6.467-1.528-9.302-1.004-2.835-2.473-5.288-4.324-7.22-1.851-1.931-4.046-3.303-6.462-4.037-2.415-.734-5.003-.816-7.616-.241-2.612.574-5.2 1.795-7.61 3.59-2.412 1.798-4.603 4.135-6.447 6.879-1.844 2.745-3.305 5.843-4.3 9.117l18.393 5.59zM294.37 148.894a23.945 23.945 0 0 0-1.356-8.286c-.933-2.633-2.318-5.033-4.078-7.061-1.76-2.03-3.858-3.648-6.177-4.763a17.39 17.39 0 0 0-7.335-1.738 17.389 17.389 0 0 0-7.377 1.55c-2.347 1.056-4.486 2.62-6.297 4.603-1.81 1.983-3.257 4.347-4.256 6.955a23.934 23.934 0 0 0-1.57 8.249l19.224.245z"/><path d="M312.649 213.3a39.939 39.939 0 0 0-2.97-15.116 39.536 39.536 0 0 0-8.453-12.815 38.967 38.967 0 0 0-12.652-8.562 38.574 38.574 0 0 0-14.925-3.007 38.574 38.574 0 0 0-14.925 3.007 38.967 38.967 0 0 0-12.652 8.562 39.536 39.536 0 0 0-8.454 12.815 39.939 39.939 0 0 0-2.97 15.116h39z" fill="#c4c4c4"/><path d="M301.649 205.8c0-3.02-.711-6.011-2.093-8.802-1.382-2.79-3.408-5.326-5.962-7.461-2.553-2.136-5.585-3.83-8.921-4.986a32.23 32.23 0 0 0-10.524-1.751 32.23 32.23 0 0 0-10.524 1.75c-3.336 1.157-6.368 2.85-8.921 4.987-2.554 2.135-4.58 4.67-5.962 7.46-1.382 2.792-2.093 5.783-2.093 8.803h27.5z" fill="#322c2c"/><path d="M273.993 170.017a30.777 30.777 0 0 0-3.182-8.997c-1.503-2.76-3.397-5.167-5.574-7.086-2.178-1.918-4.597-3.31-7.118-4.096-2.521-.785-5.096-.95-7.577-.482-2.481.467-4.82 1.555-6.883 3.204-2.063 1.648-3.81 3.824-5.141 6.403-1.332 2.579-2.221 5.51-2.617 8.627a30.747 30.747 0 0 0 .306 9.539l18.893-3.556zM274.649 67.8l5.196 57.75h-10.392z" fill="#c4c4c4"/></svg>