<svg width="92" height="31" fill="none" xmlns="http://www.w3.org/2000/svg"><path d="M26.144 25.856v.069H4.709V4.527h21.435v.068l1.992-2.057H2.716v25.376h25.42l-1.992-2.058z" fill="#001E62"/><path d="M23.602 23.387H7.181V7.064h16.42l1.992-1.92v-.069H5.258v20.301h20.336v-.069l-1.992-1.92z" fill="#001E62"/><path d="M20.991 20.78v.07H9.793V9.601h11.198v.068l2.061-2.057H7.801v15.225h15.251l-2.06-2.057z" fill="#001E62"/><path d="M15.426 15.226l4.947-4.938H10.48v9.876h9.893l-4.947-4.938z" fill="#D50032"/><path d="M28.686 28.462H2.167V1.99h26.519L30.61.069V0H.175v30.451h30.434v-.068l-1.923-1.92z" fill="#001E62"/><path d="M60.839 15.294C60.839 6.858 53.969 0 45.519 0v30.588c8.518 0 15.32-6.858 15.32-15.294z" fill="#D50032"/><path d="M44.9 0h-2.061v30.588h2.06V0zM42.22 0h-2.06v30.588h2.06V0zM39.61 0h-2.061v30.588h2.06V0zM36.999 0h-2.061v30.588h2.061V0zM34.388 0h-2.06v30.588h2.06V0zM81.428.278v2.058H91.94V.278H81.428zM62.154.24v2.058h10.511V.241H62.154zM81.448 2.933V4.99H91.96V2.933H81.448zM62.174 2.895v2.058h10.511V2.895H62.174zM81.468 5.588v2.057H91.98V5.588H81.468zM62.194 5.55v2.057h10.511V5.55H62.194zM81.489 8.242V10.3H92V8.242H81.49zM62.214 8.204v2.058h10.512V8.204H62.214zM81.44 10.897v2.057h10.512v-2.057H81.44zM62.166 10.859v2.057h10.511V10.86H62.166z" fill="#001E62"/><path d="M91.96 13.511H81.518v2.675c0 2.4-1.993 4.39-4.397 4.39-2.405 0-4.397-1.99-4.397-4.39v-2.675H62.212v2.95C62.35 24.484 69.014 31 77.121 31c8.106 0 14.702-6.516 14.84-14.54v-2.95z" fill="#D50032"/></svg>